<?xml version="1.0" encoding="utf-8"?>
<!-- Generator: Adobe Illustrator 24.0.2, SVG Export Plug-In . SVG Version: 6.00 Build 0)  -->
<svg version="1.1" id="Capa_1" xmlns="http://www.w3.org/2000/svg" xmlns:xlink="http://www.w3.org/1999/xlink" x="0px" y="0px"
	 viewBox="0 0 382.4 382.4" style="enable-background:new 0 0 382.4 382.4;" xml:space="preserve">
<style type="text/css">
	.st0{fill:#FFFFFF;}
</style>
<g>
	<g>
		<path class="st0" d="M85.2,101c0,0,0.4-2.1,1.1-5.9c0.7-3.7,1.8-8.9,3.3-15c0.8-3,1.7-6.2,2.8-9.5c1.1-3.3,2.4-6.7,3.9-10.1
			c1.5-3.4,3.2-6.7,5.2-10c0.9-1.7,2-2.9,3-4.5c0.8-1.4,2.6-3.2,3.8-4.8l0.5-0.6l0.2-0.3l0,0l1.1-1.1l2.1-2.1
			c1.4-1.4,2.8-2.9,4.1-4.3c2.8-2.8,5.9-5.2,8.7-7.8c3-2.4,5.9-4.7,8.7-6.9c2.9-2.1,5.6-4.2,8.1-6c2.6-1.8,5-3.4,7.1-5
			c2.2-1.4,4.1-2.7,5.6-3.8c3.2-2,5-3.3,5-3.3s-2.2,0-6,0.6c-3.8,0.6-9.2,1.8-15.5,4c-3.1,1.2-6.5,2.5-10,4.1
			c-3.4,1.8-7,3.6-10.6,5.9c-3.4,2.4-7.1,4.8-10.5,7.7c-1.6,1.5-3.3,3-4.9,4.6l-2.5,2.4l-1.2,1.2l-0.1,0.1l0,0l-0.3,0.3l-0.1,0.2
			l-0.3,0.3L96.9,32c-1.4,1.8-2.6,3.1-4,5.3c-1.3,2.1-2.8,4.2-3.8,6.3c-2.2,4.1-3.8,8.4-5,12.5c-2.4,8.3-3.1,16.3-2.8,23.1
			c0.1,6.7,1.2,12.2,2.1,16C84.3,98.9,85.2,101,85.2,101z"/>
		<path class="st0" d="M308,114.9c-0.3-3.8-0.8-7.5-1.4-11.2c-0.7-3.6-1.6-7.6-2.7-10.8l-1.5-4.9l-1.9-5.2c-1.2-3.3-2.6-6.6-4-9.8
			c-5.6-12.8-13.1-24.4-21.8-34c-8.6-9.7-18.6-17.1-28.4-22.3c-9.9-5.3-19.7-8.5-28.4-10.3c-8.8-1.9-16.5-2.5-22.8-2.6
			c-6.4-0.2-11.3,0.3-14.7,0.6c-3.4,0.3-5.1,0.6-5.1,0.6s1.8,0.1,5.2,0.2c3.3,0.2,8.3,0.7,14.4,1.5c6.1,0.9,13.5,2.5,21.7,5.1
			c8.1,2.7,16.9,6.6,25.6,12.1c8.6,5.6,17.1,13,24.4,22.2c7.4,9.1,13.4,20.1,18.3,32c1.1,3,2.4,6,3.3,9.2l1.5,4.5l1.3,5
			c0.9,3.4,1.4,6.2,2,9.5c0.5,3.2,0.9,6.5,1.1,9.7c0.8,13-1.4,26.3-6.6,38.6c-4.9,12.5-12.3,24.3-20.2,35.7
			c-7.5,10.7-15.2,21.5-22.3,32.3c2-6.6,3.7-13.2,5-20c2.5-13.1,3.6-26.5,2.9-40.1c-0.7-13.5-3.3-27.5-9.9-40.3
			c-0.8-1.6-1.7-3.2-2.6-4.7c-0.9-1.5-2-3.1-3.1-4.7c-1.2-1.7-2.1-2.8-3.2-4.1l-0.8-0.9l-0.4-0.5l-0.2-0.2l-0.4-0.5l-1.8-1.9
			c-4.7-5-9.9-9.3-15.2-13.2c-10.5-8-21.2-14.7-30.4-22.3c-4.6-3.8-8.8-8-12-12.8c-3.4-4.7-5.7-10.1-6.9-15.8
			c-1.2-5.8-1.6-12-1.1-18.2c0.1-0.8,0.2-1.6,0.3-2.4c0.5-2.4,1.1-4.7,1.5-7.1c0.5-3.1,0.8-6.1,1.1-9.2c-0.2,0.4-0.3,0.8-0.5,1.1
			l0,0c0.2-0.4,0.3-0.8,0.5-1.1c-0.4,0.5-0.7,1.1-1.1,1.6c-0.7,0.6-1.8,1.5-3.2,3c-2.5,2.7-5.8,6.9-8.8,13.2
			c-2.9,5.9-5.7,13.4-7,22.6c-5,7.5-10.4,14.6-16.1,21.6c-7.6,9.3-15.6,18.4-23.5,28c-3.9,4.9-7.7,9.8-11.2,15.2
			c-3.5,5.2-6.9,10.8-9.5,16.8l-3.6,6.9l-3.4,7.6c-2,5.2-3.8,10.6-4.8,16.2c-0.6,2.8-1,5.7-1.2,8.5c-0.3,2.9-0.3,5.8-0.1,8.7
			l0.3,4.4l0.8,4.3c0.7,2.8,1.5,5.7,2.6,8.4c1,2.7,2.4,5.3,3.9,7.8c1.4,2.5,3.2,4.8,5.1,7c3.7,4.3,8,8,12.6,11.1
			c9.2,6,19.5,10,30,11.5c-4.9-2.1-9.4-4.8-13.7-7.5c-4.3-2.9-8.4-5.9-12-9.4c-3.6-3.5-6.9-7.2-9.5-11.2c-1.3-2-2.4-4.1-3.4-6.3
			c-1-2.1-1.9-4.3-2.4-6.6c-0.7-2.2-1-4.5-1.3-6.8c-0.3-2.3-0.4-4.6-0.3-7c0.1-2.3,0.2-4.7,0.6-7c0.3-2.3,0.8-4.7,1.4-7
			c0.5-2.3,1.4-4.6,2.1-6.9c0.8-2.3,1.7-4.6,2.6-6.8l3.1-6.7l3.6-6.6l0.1-0.2l0.2-0.3c2.4-5.1,5.2-10.1,8.4-15
			c3.2-4.9,6.7-9.7,10.3-14.5c7.1-9.7,14.9-19.3,21.8-29.6c2.3-3.4,4.5-6.8,6.6-10.3c0.8,5.3,2.2,10.8,4.9,16.3
			c2.8,5.8,6.9,11.3,12,16c1.3,1.1,2.7,2.2,4,3.4c1.4,1,2.9,2.1,4.4,3c1.1,0.7,2.2,1.3,3.4,2c0.5,0.4,1,0.8,1.5,1.2
			c2.2,1.7,4.5,3.1,6.8,4.6l3.4,1.9c7.2,5.9,13.8,13.6,18.9,22.2c1,1.6,1.8,3.4,2.6,5.1c0.4,1.1,0.8,2.1,1.2,3.2
			c1.1,3.8,2.1,7.6,2.5,11.6c1,7.9,0.5,16.1-0.9,24.2c-1.5,8.1-3.6,16.3-6.5,24.3c-1.8,5-3.9,10-6.1,14.9c-2,1.8-4.1,3.7-6.4,5.5
			c-4.8,3.7-10.1,7.6-15.9,11.6c-5.9,3.9-12.2,8-18.6,12.3c-6.5,4.3-13.3,8.8-20,14c-6.6,5.1-13.4,10.7-19.3,17.2
			c-6,6.4-11.4,13.8-15.4,21.7c-4.1,7.8-6.7,17.8-5.2,27.1c1.5,9.4,6.6,17,12,22.5c5.5,5.7,11.5,9.6,17.2,12.8
			c5.6,3.2,11.1,5.4,16,7.2c1.7,0.7,3.3,1.2,4.9,1.7c1.7,1.4,3.5,2.7,5.3,3.8c9,5.4,18.8,8,28.5,8.7c19.4,1.3,38.8-3.5,54.4-14.2
			c7.8-5.3,14.5-12.3,19.2-20.3c4.1-6.8,6.5-14.5,7.7-22.1c1.7-2.6,3.2-4.8,4.2-6.6c1.8-3.1,2.8-4.8,2.8-4.8s-0.8,0.8-2.2,2.4
			c0.8-1.7,1.6-3.5,2.2-5.3c-0.2,0.2-0.4,0.5-0.5,0.7c0-0.1,0.1-0.2,0.1-0.3c0.3-0.8,0.4-1.3,0.4-1.3s-0.2,0.4-0.6,1.2
			c-0.3,0.7-0.9,1.8-1.7,3c-0.9,1.2-1.8,2.3-2.7,3.4c-2,2.1-4.6,4.2-8.2,5.5c-5.4,2-13.2,1.2-19.1-4c-6-5-9.4-14-9.6-23.8
			c-0.1-5,0.5-10.2,1.7-15.5c0.6-2.7,1.4-5.3,2.2-7.9c0.4-1.3,1-2.8,1.5-4.2l0.7-2l0.8-2c4.5-10.9,11.1-21.6,18.5-32.5
			c7.4-10.9,16.2-21.6,24.4-33.3c8.3-11.7,16.4-24.2,22.2-38.3C306.7,145.8,309.2,130,308,114.9z M195.5,299.2
			c0.1-0.4,0.3-0.8,0.5-1.2c-0.2,1.6-0.3,3.2-0.4,4.8c-0.2,6.4,0.5,13.1,3,19.4c2.5,6.3,7.2,12.1,13.1,15.7c5.9,3.6,12.6,5.1,19,4.8
			c4.6-0.2,8.9-1.2,13-2.8c-1.9,1.4-3.9,2.8-6,4.2c-7.4,4.8-16.9,9.4-26.4,9.2c-9.5-0.1-16.9-7.1-19.3-17.9
			C189.6,324.5,191.4,311.6,195.5,299.2z M220,118.2L220,118.2C220.2,118.4,220.1,118.3,220,118.2z M176.7,77.8
			c9.3,9.8,19.7,17.2,28.8,25.5c4.6,4.1,8.8,8.3,12.7,12.7l1.4,1.7l0.4,0.4l0,0l0,0l0.1,0.1l0.7,0.9c1,1.3,2,2.6,2.5,3.6
			c1.2,2,2.7,4.5,3.7,7c2.3,5,3.8,10.5,4.9,16.1c0.1,0.4,0.1,0.8,0.2,1.2c-2.8-8.3-6.6-16.2-11.3-23.3c-8.5-13.3-20-23.5-32.9-30.5
			c-2.9-1.4-5.8-2.9-8.5-4.3c-0.9-0.5-1.7-1.1-2.6-1.6c-1.1-0.9-2.2-1.7-3.2-2.7c-1.7-1.6-3.3-3.3-4.7-5.1l-2.1-2.8L165,74
			c-1.2-2-2.3-4-3.2-6.2c-1-2.1-1.7-4.4-2.4-6.6c-0.6-2.3-1.1-4.6-1.5-7c-0.3-2.4-0.5-4.8-0.6-7.2c0-1.4,0.1-2.8,0.1-4.2
			c0.5-1.1,1-2.1,1.5-3.2c0-0.1,0.1-0.1,0.1-0.2c0,0.7,0,1.3,0,2c0.5,6.8,2.3,13.7,5.5,19.9C167.7,67.5,172,73,176.7,77.8z M167.1,5
			c-1.7,3.6-3.2,7.4-4.5,11.2c-0.2,0.5-0.4,1.1-0.7,1.6c0,0,0,0,0-0.1C163.3,13.4,165.1,9.2,167.1,5L167.1,5z M118.3,341
			c-4-5-6.9-11-7.4-17.2c-0.6-6.3,1.2-12.6,5-19c3.7-6.5,8.4-12.6,13.8-18.3c5.4-5.6,11.3-11,17.5-16c6.3-4.9,12.6-9.8,18.8-14.5
			c6.2-4.7,12.3-9.3,17.8-14c1.4-1.2,2.8-2.4,4.2-3.6c-1.7,3.1-3.5,6.1-5.3,9.2c-4.4,7.5-9.2,14.9-14.2,22.2
			c-5,7.3-10.1,14.2-15.5,21.5c-5.5,7.4-11,15.8-14.7,25.1c-3.7,9.2-6.1,20.2-3.7,31.3c0.9,4,2.6,7.9,4.7,11.5
			c-2.4-1.6-4.8-3.3-7.3-5.1C127.2,350.4,122.4,346,118.3,341z M252.6,345.2c-5.4,6.8-12.3,12.2-19.8,16.2c-7.5,4-15.7,6.5-24,7.9
			c-8.3,1.3-16.8,1.4-24.9,0.1c-8.1-1.4-15.9-4-22.1-8.3c-6.2-4.3-10.2-10.2-11.2-16.8c-1.2-6.6,0.4-14.1,3.7-21.2
			c3.2-7.2,7.9-13.9,13.3-20.7c5.5-6.9,11.1-14.4,16.4-21.9c0-0.1,0.1-0.2,0.2-0.3c-1.9,4.6-3.6,9.2-5,13.8
			c-4.3,14.8-5.6,30.6-1,45.3c2.3,7.3,6.4,14.3,12.7,19.1c6.3,4.8,14.2,6.6,20.9,6c13.7-1.3,23.2-8.4,30.5-14.5
			c7.4-6.3,12.7-12.8,16.8-18.2c1.3-1.6,2.4-3.2,3.4-4.6C260.1,333.8,256.8,339.9,252.6,345.2z M235.1,323.9
			c6.3,4.6,13.6,5.2,19.2,3.8c-2.7,1.6-5.5,3-8.4,4c-9.8,3.5-20.9,2.5-27.9-3.1c-7.1-5.5-9-15.1-7.9-24.8c1.2-9.6,5.2-19.3,9.8-28.6
			c0.8-1.2,1.6-2.4,2.3-3.6c-0.5,2.3-1,4.5-1.3,6.7c-0.9,6.1-1.1,12.1-0.5,17.9C221.6,307.7,226.9,318.4,235.1,323.9z"/>
	</g>
</g>
</svg>
