<?xml version="1.0" encoding="utf-8"?>
<!-- Generator: Adobe Illustrator 24.0.2, SVG Export Plug-In . SVG Version: 6.00 Build 0)  -->
<svg version="1.1" id="Capa_1" xmlns="http://www.w3.org/2000/svg" xmlns:xlink="http://www.w3.org/1999/xlink" x="0px" y="0px"
	 viewBox="0 0 31.7 31.7" style="enable-background:new 0 0 31.7 31.7;" xml:space="preserve">
<style type="text/css">
	.st0{fill:#FC3F6B;}
</style>
<g>
	<path class="st0" d="M11.3,17.4c0.7,0.1,2.6-4.2,2.7-4.3s2.8,0.1,2.4-1.3c-0.8,0.7-1.2-0.1-1.1-0.6c0-0.5,0.7-1.7,0.9-1.6
		c0.2,0.1,0.5,0.7,1.1,0.1c-1,0.1-0.7-1.3-0.4-1.5c0.3-0.2,1.5-0.7,1.8-1s0.4-1.4,1-1.1c0.7,0.2,0.2,1.7,0.4,2.2s2.1,2.1,2,2.6
		c0,0.5-0.8,0.4-0.8,1.1c0,0.3,0.5,0.5,0.5,0.8s-0.5,0.6-0.5,0.6s0.5,0.1,0.4,0.6s-0.7,0.3-0.9,0.4c-0.1,0,0.9,1.1,0.2,2
		c-0.7,0.8-4,0-4.7,0.2c-1.2,0.5-2.2,2.1-1.6,2.9c0.7,0.8,3,3.3,3.6,5.4c1,2.7-1.5,7.5-2.9,4c-2,1.3,2.2,6.3,8-1.1
		c4.5-6,2.3-17.1,1-19.5c-1.3-2.5-7.5-11-14.1-7.2C2.1,5.5,6,16.4,11.3,17.4z"/>
</g>
</svg>
