<?xml version="1.0" encoding="utf-8"?>
<!-- Generator: Adobe Illustrator 24.0.2, SVG Export Plug-In . SVG Version: 6.00 Build 0)  -->
<svg version="1.1" id="Layer_5" xmlns="http://www.w3.org/2000/svg" xmlns:xlink="http://www.w3.org/1999/xlink" x="0px" y="0px"
	 viewBox="0 0 512 512" style="enable-background:new 0 0 512 512;" xml:space="preserve">
<style type="text/css">
	.st0{fill:#FC3D6A;}
</style>
<g>
	<path class="st0" d="M40,300.7V472h171.3l36.7-36.7V264H76.7L40,300.7z M56,424V312h176v112H56z M204.7,456H56v-16h164.7L204.7,456
		z M232,280v16H67.3l16-16H232z"/>
	<path class="st0" d="M192,328c-24.1,0-44.7,15.4-52.5,36.8C129.2,352.1,113.5,344,96,344H72v8c0,30.9,25.1,56,56,56h24v-8
		c0-2.7-0.3-5.4-0.6-8h8.6c30.9,0,56-25.1,56-56v-8H192z M128,392c-19.3,0-35.5-13.8-39.2-32H96c19.3,0,35.5,13.8,39.2,32H128z
		 M160,376h-7.2c3.7-18.2,19.9-32,39.2-32h7.2C195.5,362.2,179.3,376,160,376z"/>
	<path class="st0" d="M280,312v-75.3L243.3,200H208v-32h8c13.2,0,24-10.8,24-24v-16c0-13.2-10.8-24-24-24h-24V56
		c0-26.5-21.5-48-48-48S96,29.5,96,56v48H72c-13.2,0-24,10.8-24,24v16c0,13.2,10.8,24,24,24h8v32H44.7L8,236.7V464
		c0,22.1,17.9,40,40,40h192c19.3,0,35.5-13.8,39.2-32H352c83.8,0,152-68.2,152-152v-8H280z M112,56c0-17.6,14.4-32,32-32
		s32,14.4,32,32v48h-64V56z M64,144v-16c0-4.4,3.6-8,8-8h144c4.4,0,8,3.6,8,8v16c0,4.4-3.6,8-8,8H72C67.6,152,64,148.4,64,144z
		 M96,168h96v32H96V168z M51.3,216h185.4l16,16H35.3L51.3,216z M240,488H48c-13.2,0-24-10.8-24-24V248h240v216
		C264,477.2,253.2,488,240,488z M280,456v-69.9c12.1,4,24.8,8.7,37.2,13.4c32.1,12,65.4,24.5,90.8,24.5c10.3,0,22.7-0.9,34.7-2.9
		C418.6,442.7,386.8,456,352,456H280z M462.4,399.2c-12.4,5.3-33.3,8.8-54.4,8.8c-16.8,0-38.8-6.7-61.7-14.8
		C371,382,392.2,376,408,376c44.2,0,57.8,7,62,11.4C467.7,391.5,465.2,395.4,462.4,399.2z M477.2,372.6
		c-12.2-8.6-34.7-12.6-69.2-12.6c-21.4,0-49.3,8.6-82.7,25.4c-0.8-0.3-1.7-0.6-2.5-0.9c-14.3-5.3-28.9-10.8-42.8-15.2V328h207.8
		C486.8,343.8,483.1,358.8,477.2,372.6L477.2,372.6z"/>
	<path class="st0" d="M383,264h1.9c52.4,0,95-42.6,95-95c0-17.8-5-35.2-14.4-50.4L403,18.5C398.9,11.9,391.8,8,384,8
		s-14.9,3.9-19,10.5l-62.5,100C293,133.7,288,151.1,288,169C288,221.4,330.6,264,383,264L383,264z M316,127.1l62.5-100
		c1.2-1.9,3.2-3,5.5-3s4.3,1.1,5.5,3l62.5,100c7.9,12.6,12,27.1,12,41.9c0,43.6-35.5,79-79,79H383c-43.6,0-79-35.5-79-79
		C304,154.1,308.2,139.6,316,127.1L316,127.1z"/>
	<path class="st0" d="M448,169c0-3.4-0.3-6.9-0.8-10.3l-15.8,2.6c0.4,2.5,0.6,5.1,0.6,7.7c0,25.9-21.1,47-47,47h-1v16h1
		C419.7,232,448,203.7,448,169L448,169z"/>
	<path class="st0" d="M426.9,147.6l14.3-7.3c-0.8-1.6-1.7-3.2-2.7-4.8l-7.4-11.8l-13.6,8.5l7.4,11.8
		C425.6,145.2,426.3,146.4,426.9,147.6L426.9,147.6z"/>
</g>
</svg>
