<?xml version="1.0" encoding="utf-8"?>
<!-- Generator: Adobe Illustrator 24.0.2, SVG Export Plug-In . SVG Version: 6.00 Build 0)  -->
<svg version="1.1" id="Capa_1" xmlns="http://www.w3.org/2000/svg" xmlns:xlink="http://www.w3.org/1999/xlink" x="0px" y="0px"
	 viewBox="0 0 512 512" style="enable-background:new 0 0 512 512;" xml:space="preserve">
<style type="text/css">
	.st0{fill:#FC3D6A;}
</style>
<g>
	<path class="st0" d="M484.9,202.1c-3.8-20.6-27.5-34-74.7-42.3c-14.6-2.6-31.6-4.6-50.9-6.2c19.4-7.3,33.9-16.8,43.2-28.2
		c10-12.4,13.6-27.1,10.3-42.4c-6.3-29.6-24.4-51.5-53.8-65.1C333.2,5.8,298.7,0,253.5,0C167.6,0,94,59.9,94,109
		c0,19.8,11.6,34.8,34.4,44.8c-10.8,1.1-20.9,2.6-30.1,4.5c-22.8,4.6-39.6,11.6-51.4,21.2C33,190.8,26,206,26,224.5
		c0,27.2,21.9,47,65.1,59c-5.8,2.5-10.5,5.7-13.9,9.9c-4,4.8-8,13.1-5.1,25.6c6.4,27,24.5,49.7,52.5,65.6c3.7,2.1,7.4,4,11.1,5.7
		c-10.5,1.6-19.7,3.5-27.8,5.6c-11.8,3.1-21.6,6.7-29.9,11.1c-9.6,5.1-16.7,11-21.8,18.1c-5.7,7.7-8.6,17-8.6,26.9v0.2v0
		c0,14.1,5.1,26.7,14.5,35.6c4.4,4.2,9.5,7.7,15.7,10.7c5.5,2.7,11.7,4.9,19,6.7c0.8,0.2,1.6,0.3,2.5,0.3c4.6,0,8.6-3.1,9.7-7.5
		c1.3-5.3-1.9-10.8-7.2-12.1c-11.5-2.9-20.4-7.2-25.8-12.4c-5.8-5.8-8.2-12-8.4-21.4c0-0.1,0-0.2,0-0.2c0-5.9,1.5-10.6,4.8-15.2
		c5.4-7.7,17.3-14.6,33.3-19.5c25.9-8,62.5-11.3,92.1-13.3c21.6-0.1,64.7-1.2,107.8-7.2c9.2-1,18.5-1.5,27.6-1.5h0.2
		c31.2,0,60,6,81.1,17c9.3,4.8,16.9,10.5,21.7,16.5c4.5,5.5,6.7,10.8,6.7,16.2c0,2.2-0.4,4.4-1.1,6.6c-1.2,3.5-3.6,6.7-7.4,9.9
		c-7,5.9-19.2,11.4-34.5,15.6c-20.8,5.8-49.1,9.9-83.9,12.2c-25.5,1.7-54,2.5-89.7,2.5c-8,0-32.9,0.2-37.3,0.2
		c-5.5,0-10,4.5-9.9,10.1c0,5.5,4.5,10,10,10h0.1c4.5,0,29.4-0.2,37.2-0.2c37.6,0,93-0.8,139.4-7.5c25-3.6,44.5-8.5,59.7-14.8
		c8.9-3.7,16-7.9,21.8-12.6c6.6-5.5,11.2-11.8,13.5-18.8c1.5-4.3,2.2-8.7,2.2-13.1c0-10-3.9-20-11.2-28.9
		c-5.1-6.2-11.8-11.9-19.7-16.9c-7.8-4.9-16.9-9.2-27.1-12.7c-8.3-2.9-17.2-5.3-26.5-7c3.6-1.5,7-3,10.1-4.7
		c17.7-9.3,26.7-21,26.7-34.8c0-22.4-14.8-38.6-44-48.4c5.2-0.8,10.3-1.7,15.2-2.6c42.9-8.2,71.3-21.3,86.8-39.8
		C484.2,235.8,488.2,219.9,484.9,202.1L484.9,202.1z M114,109c0-17.2,15.6-39.5,39.7-56.9C182.2,31.4,217.7,20,253.5,20
		c42.2,0,74,5.2,97.1,15.9c23.7,11,37.6,27.7,42.6,51.1c2,9.5,0,17.9-6.3,25.7c-18.3,22.6-70.7,37.2-133.4,37.2
		C159.6,150,114,136.6,114,109z M395,340.1c0,12.3-24.9,24.5-66.5,32.7c-8.1,1.6-17,3-26.3,4.3c-20.6,2.2-107.3,7-108.4,7
		c-26.9,0-90-17.5-102.3-69.6c-1.3-5.4,0.3-7.4,1-8.3c2.9-3.5,11.5-8,35.7-9.6c14.4-0.9,31.3-0.6,49.5,0c19.4,1.3,73.2,2.5,77.6,2.5
		C349.3,299.1,395,312.5,395,340.1L395,340.1z M457.6,236.4c-16.2,19.5-64.4,42.6-202.1,42.6c-23.2,0-69.4-2.1-75.9-2.3
		C71.2,269.2,46,245.2,46,224.5c0-16.4,6.4-36.5,56.3-46.6c38.7-7.9,94.4-7.9,153.2-7.9c188.5,0,208.2,27.3,209.7,35.7
		C467.4,217.6,464.9,227.6,457.6,236.4L457.6,236.4z"/>
	<circle class="st0" cx="143.8" cy="501.3" r="10"/>
</g>
</svg>
