<?xml version="1.0" encoding="iso-8859-1"?>
<!-- Generator: Adobe Illustrator 19.0.0, SVG Export Plug-In . SVG Version: 6.00 Build 0)  -->
<svg version="1.1" id="Capa_1" xmlns="http://www.w3.org/2000/svg" xmlns:xlink="http://www.w3.org/1999/xlink" x="0px" y="0px"
	 viewBox="0 0 512 512" style="enable-background:new 0 0 512 512;" xml:space="preserve">


<style type="text/css">
	.st0{fill:#FC3D6A;}
</style>

<g>
	<g>
		<path class="st0" d="M348.67,166.531c-0.13-0.64-0.32-1.269-0.57-1.869s-0.56-1.18-0.92-1.73c-0.36-0.541-0.78-1.06-1.24-1.52
			c-1.86-1.861-4.44-2.931-7.07-2.931s-5.21,1.071-7.07,2.931c-0.46,0.46-0.88,0.98-1.24,1.52c-0.361,0.549-0.671,1.129-0.921,1.73
			c-0.25,0.599-0.45,1.229-0.57,1.869c-0.13,0.65-0.2,1.301-0.2,1.95c0,0.66,0.07,1.31,0.2,1.96c0.12,0.64,0.32,1.27,0.57,1.87
			c0.25,0.601,0.561,1.181,0.921,1.72c0.36,0.55,0.78,1.06,1.24,1.53c0.46,0.46,0.97,0.88,1.52,1.24c0.54,0.36,1.12,0.67,1.72,0.92
			c0.61,0.25,1.24,0.44,1.88,0.57c0.64,0.129,1.3,0.189,1.95,0.189c0.65,0,1.31-0.06,1.95-0.189c0.64-0.13,1.27-0.32,1.87-0.57
			c0.61-0.25,1.19-0.56,1.73-0.92c0.55-0.36,1.06-0.78,1.52-1.24c0.46-0.469,0.88-0.979,1.24-1.53c0.36-0.539,0.67-1.119,0.92-1.72
			c0.25-0.6,0.44-1.229,0.57-1.87c0.13-0.649,0.2-1.3,0.2-1.96C348.87,167.832,348.8,167.181,348.67,166.531z"/>
	</g>
</g>
<g>
	<g>
		<path class="st0" d="M474.508,229.64h-16.791c2.914-6.353,4.467-13.335,4.467-20.545v-1.075c0-23.971-17.2-43.998-39.9-48.379
			c6.472-8.34,10.33-18.808,10.33-30.159c0-27.167-22.093-49.27-49.248-49.27H283.064c-5.768-2.988-11.036-6.85-15.684-11.501
			c-14.586-14.594-20.934-35.85-16.979-56.861c0.611-3.247-0.421-6.586-2.757-8.921c-2.336-2.337-5.676-3.367-8.921-2.756
			c-16.564,3.12-32.188,11.344-43.994,23.155c-15.289,15.298-23.887,35.573-24.404,56.884h-41.689
			c-27.155,0-49.248,22.103-49.248,49.27c0,11.352,3.857,21.819,10.33,30.159c-22.701,4.381-39.9,24.408-39.9,48.379v1.075
			c0,7.21,1.553,14.192,4.467,20.545H37.492c-5.523,0-10,4.478-10,10v164.451C27.492,463.592,75.899,512,135.401,512h241.198
			c59.501,0,107.909-48.408,107.909-107.909V239.64C484.508,234.117,480.031,229.64,474.508,229.64z M69.815,208.02
			c0-16.14,13.121-29.27,29.248-29.27h17.111c0.025,0,0.051,0.001,0.076,0.001h183.308c5.523,0,10-4.478,10-10
			c0-5.522-4.477-10-10-10H128.711c-0.026,0-0.051-0.001-0.076-0.001c-16.128,0-29.248-13.13-29.248-29.269
			c0-16.14,13.121-29.27,29.248-29.27h52.089c2.837,0,5.541-1.205,7.437-3.315c1.897-2.109,2.808-4.926,2.506-7.747
			c-2.052-19.214,4.584-38.052,18.207-51.683c5.776-5.779,12.762-10.432,20.374-13.651c-0.091,22.142,8.388,43.428,23.986,59.034
			c6.788,6.791,14.592,12.308,23.197,16.395c1.341,0.638,2.807,0.968,4.291,0.968h102.644c16.128,0,29.248,13.13,29.248,29.27
			c0,16.139-13.121,29.269-29.248,29.269c-5.523,0-10,4.477-10,10c0,5.522,4.477,10,10,10h29.57c16.127,0,29.249,13.13,29.249,29.27
			v1.075c0,7.764-3.035,15.087-8.424,20.545H78.239c-5.389-5.459-8.424-12.782-8.424-20.546V208.02z M464.509,404.091h-0.001
			c0,48.474-39.436,87.909-87.909,87.909H135.401c-48.473,0-87.909-39.435-87.909-87.909V302.938h417.017V404.091z M464.509,282.938
			H47.492V249.64h417.017V282.938z"/>
	</g>
</g>
<g>
	<g>
		<path class="st0" d="M346.568,393.392c-1.241-0.529-24.79-10.374-48.403-6.562c0.777-3.485,1.168-6.964,1.168-10.43
			c0-32.917-36.165-57.929-37.705-58.978c-3.397-2.314-7.862-2.314-11.259,0c-1.54,1.049-37.705,26.061-37.705,58.978
			c0,3.466,0.391,6.945,1.168,10.43c-23.612-3.812-47.163,6.034-48.403,6.563c-4.15,1.77-6.601,6.1-5.982,10.568
			c0.234,1.684,6.03,41.437,33.937,57.234c9.358,5.298,19.743,7.077,29.477,7.076c14.154-0.001,26.926-3.764,33.138-5.944
			c6.211,2.18,18.983,5.944,33.139,5.944c9.732,0,20.121-1.779,29.477-7.076c27.908-15.797,33.703-55.551,33.936-57.235
			C353.169,399.491,350.718,395.161,346.568,393.392z M203.237,443.791c-13.17-7.455-19.521-24.49-22.234-34.606
			c10.076-2.884,27.948-6.203,41.115,1.251c2.735,1.548,5.176,3.51,7.352,5.737c0.239,0.28,0.49,0.544,0.752,0.792
			c7.809,8.449,12.038,20.283,14.123,28.053C234.244,447.88,216.31,451.193,203.237,443.791z M267.262,403.258
			c-4.675,5.053-8.365,10.776-11.262,16.447c-2.896-5.669-6.585-11.39-11.258-16.442c-0.007-0.009-0.014-0.017-0.021-0.026
			c-5.499-6.516-12.055-16.46-12.055-26.837c0-15.059,13.838-30.05,23.333-38.093c9.503,8.05,23.335,23.037,23.335,38.093
			c0,10.377-6.555,20.322-12.055,26.837C267.273,403.244,267.268,403.251,267.262,403.258z M308.763,443.791
			c-13.159,7.447-31.016,4.14-41.09,1.259c2.131-7.869,6.462-19.927,14.413-28.388c0.063-0.065,0.126-0.132,0.188-0.199
			c2.241-2.353,4.767-4.418,7.608-6.027c13.16-7.449,31.016-4.139,41.091-1.259C328.228,419.311,321.836,436.391,308.763,443.791z"
			/>
	</g>
</g>
<g>
</g>
<g>
</g>
<g>
</g>
<g>
</g>
<g>
</g>
<g>
</g>
<g>
</g>
<g>
</g>
<g>
</g>
<g>
</g>
<g>
</g>
<g>
</g>
<g>
</g>
<g>
</g>
<g>
</g>
</svg>
