<?xml version="1.0" encoding="utf-8"?>
<!-- Generator: Adobe Illustrator 24.0.2, SVG Export Plug-In . SVG Version: 6.00 Build 0)  -->
<svg version="1.1" id="Capa_1" xmlns="http://www.w3.org/2000/svg" xmlns:xlink="http://www.w3.org/1999/xlink" x="0px" y="0px"
	 viewBox="0 0 512 512" style="enable-background:new 0 0 512 512;" xml:space="preserve">
<style type="text/css">
	.st0{fill:#FF9FD2;}
</style>
<g>
	<g>
		<path class="st0" d="M348.7,166.5c-0.1-0.6-0.3-1.3-0.6-1.9s-0.6-1.2-0.9-1.7c-0.4-0.5-0.8-1.1-1.2-1.5c-1.9-1.9-4.4-2.9-7.1-2.9
			s-5.2,1.1-7.1,2.9c-0.5,0.5-0.9,1-1.2,1.5c-0.4,0.5-0.7,1.1-0.9,1.7c-0.3,0.6-0.5,1.2-0.6,1.9c-0.1,0.6-0.2,1.3-0.2,1.9
			c0,0.7,0.1,1.3,0.2,2c0.1,0.6,0.3,1.3,0.6,1.9c0.3,0.6,0.6,1.2,0.9,1.7c0.4,0.6,0.8,1.1,1.2,1.5c0.5,0.5,1,0.9,1.5,1.2
			c0.5,0.4,1.1,0.7,1.7,0.9c0.6,0.3,1.2,0.4,1.9,0.6c0.6,0.1,1.3,0.2,2,0.2c0.6,0,1.3-0.1,2-0.2c0.6-0.1,1.3-0.3,1.9-0.6
			c0.6-0.3,1.2-0.6,1.7-0.9c0.5-0.4,1.1-0.8,1.5-1.2c0.5-0.5,0.9-1,1.2-1.5c0.4-0.5,0.7-1.1,0.9-1.7c0.3-0.6,0.4-1.2,0.6-1.9
			c0.1-0.6,0.2-1.3,0.2-2C348.9,167.8,348.8,167.2,348.7,166.5z"/>
	</g>
</g>
<g>
	<g>
		<path class="st0" d="M474.5,229.6h-16.8c2.9-6.4,4.5-13.3,4.5-20.5V208c0-24-17.2-44-39.9-48.4c6.5-8.3,10.3-18.8,10.3-30.2
			c0-27.2-22.1-49.3-49.2-49.3H283.1c-5.8-3-11-6.8-15.7-11.5c-14.6-14.6-20.9-35.8-17-56.9c0.6-3.2-0.4-6.6-2.8-8.9
			c-2.3-2.3-5.7-3.4-8.9-2.8c-16.6,3.1-32.2,11.3-44,23.2c-15.3,15.3-23.9,35.6-24.4,56.9h-41.7c-27.2,0-49.2,22.1-49.2,49.3
			c0,11.4,3.9,21.8,10.3,30.2C67,164,49.8,184,49.8,208v1.1c0,7.2,1.6,14.2,4.5,20.5H37.5c-5.5,0-10,4.5-10,10v164.5
			c0,59.5,48.4,107.9,107.9,107.9h241.2c59.5,0,107.9-48.4,107.9-107.9V239.6C484.5,234.1,480,229.6,474.5,229.6z M69.8,208
			c0-16.1,13.1-29.3,29.2-29.3h17.1c0,0,0.1,0,0.1,0h183.3c5.5,0,10-4.5,10-10s-4.5-10-10-10H128.7c0,0-0.1,0-0.1,0
			c-16.1,0-29.2-13.1-29.2-29.3c0-16.1,13.1-29.3,29.2-29.3h52.1c2.8,0,5.5-1.2,7.4-3.3c1.9-2.1,2.8-4.9,2.5-7.7
			c-2.1-19.2,4.6-38.1,18.2-51.7c5.8-5.8,12.8-10.4,20.4-13.7c-0.1,22.1,8.4,43.4,24,59c6.8,6.8,14.6,12.3,23.2,16.4
			c1.3,0.6,2.8,1,4.3,1h102.6c16.1,0,29.2,13.1,29.2,29.3c0,16.1-13.1,29.3-29.2,29.3c-5.5,0-10,4.5-10,10c0,5.5,4.5,10,10,10h29.6
			c16.1,0,29.2,13.1,29.2,29.3v1.1c0,7.8-3,15.1-8.4,20.5H78.2c-5.4-5.5-8.4-12.8-8.4-20.5V208z M464.5,404.1L464.5,404.1
			c0,48.5-39.4,87.9-87.9,87.9H135.4c-48.5,0-87.9-39.4-87.9-87.9V302.9h417V404.1z M464.5,282.9h-417v-33.3h417V282.9z"/>
	</g>
</g>
<g>
	<g>
		<path class="st0" d="M346.6,393.4c-1.2-0.5-24.8-10.4-48.4-6.6c0.8-3.5,1.2-7,1.2-10.4c0-32.9-36.2-57.9-37.7-59
			c-3.4-2.3-7.9-2.3-11.3,0c-1.5,1-37.7,26.1-37.7,59c0,3.5,0.4,6.9,1.2,10.4c-23.6-3.8-47.2,6-48.4,6.6c-4.1,1.8-6.6,6.1-6,10.6
			c0.2,1.7,6,41.4,33.9,57.2c9.4,5.3,19.7,7.1,29.5,7.1c14.2,0,26.9-3.8,33.1-5.9c6.2,2.2,19,5.9,33.1,5.9c9.7,0,20.1-1.8,29.5-7.1
			c27.9-15.8,33.7-55.6,33.9-57.2C353.2,399.5,350.7,395.2,346.6,393.4z M203.2,443.8c-13.2-7.5-19.5-24.5-22.2-34.6
			c10.1-2.9,27.9-6.2,41.1,1.3c2.7,1.5,5.2,3.5,7.4,5.7c0.2,0.3,0.5,0.5,0.8,0.8c7.8,8.4,12,20.3,14.1,28.1
			C234.2,447.9,216.3,451.2,203.2,443.8z M267.3,403.3c-4.7,5.1-8.4,10.8-11.3,16.4c-2.9-5.7-6.6-11.4-11.3-16.4c0,0,0,0,0,0
			c-5.5-6.5-12.1-16.5-12.1-26.8c0-15.1,13.8-30,23.3-38.1c9.5,8,23.3,23,23.3,38.1C279.3,386.8,272.8,396.7,267.3,403.3
			C267.3,403.2,267.3,403.3,267.3,403.3z M308.8,443.8c-13.2,7.4-31,4.1-41.1,1.3c2.1-7.9,6.5-19.9,14.4-28.4
			c0.1-0.1,0.1-0.1,0.2-0.2c2.2-2.4,4.8-4.4,7.6-6c13.2-7.4,31-4.1,41.1-1.3C328.2,419.3,321.8,436.4,308.8,443.8z"/>
	</g>
</g>
</svg>
