<?xml version="1.0" encoding="utf-8"?>
<!-- Generator: Adobe Illustrator 24.0.2, SVG Export Plug-In . SVG Version: 6.00 Build 0)  -->
<svg version="1.1" id="Capa_1" xmlns="http://www.w3.org/2000/svg" xmlns:xlink="http://www.w3.org/1999/xlink" x="0px" y="0px"
	 viewBox="0 0 512 512" style="enable-background:new 0 0 512 512;" xml:space="preserve">
<style type="text/css">
	.st0{fill:#FF9FD2;}
</style>
<g>
	<g>
		<path class="st0" d="M133.4,81.2c-0.1-0.6-0.3-1.3-0.6-1.9c-0.3-0.6-0.6-1.2-0.9-1.7c-0.4-0.6-0.8-1.1-1.2-1.5
			c-2.3-2.3-5.8-3.4-9-2.7c-0.6,0.1-1.3,0.3-1.9,0.6c-0.6,0.3-1.2,0.6-1.7,0.9c-0.6,0.4-1.1,0.8-1.5,1.2c-0.5,0.5-0.9,1-1.2,1.5
			c-0.4,0.5-0.7,1.1-0.9,1.7c-0.3,0.6-0.4,1.2-0.6,1.9c-0.1,0.6-0.2,1.3-0.2,2c0,2.6,1.1,5.2,2.9,7.1c0.5,0.5,1,0.9,1.5,1.2
			c0.5,0.4,1.1,0.7,1.7,0.9s1.2,0.4,1.9,0.6c0.7,0.1,1.3,0.2,2,0.2c0.7,0,1.3-0.1,1.9-0.2s1.3-0.3,1.9-0.6s1.2-0.6,1.7-0.9
			c0.6-0.4,1.1-0.8,1.5-1.2c1.9-1.9,2.9-4.4,2.9-7.1C133.6,82.6,133.6,81.9,133.4,81.2z"/>
	</g>
</g>
<g>
	<g>
		<path class="st0" d="M219.6,156.7c-20.9,0-37.9,17-37.9,37.9v9.6v65.4c0,20.9,17,37.9,37.9,37.9s37.9-17,37.9-37.9v-65.4v-9.6
			C257.5,173.7,240.5,156.7,219.6,156.7z M237.5,269.6c0,9.9-8,17.9-17.9,17.9c-9.9,0-17.9-8-17.9-17.9v-32
			c5.3,2.9,11.4,4.5,17.9,4.5c6.5,0,12.6-1.6,17.9-4.5V269.6z M237.5,204.2c0,9.9-8,17.9-17.9,17.9s-17.9-8-17.9-17.9v-9.6
			c0-9.9,8-17.9,17.9-17.9c9.9,0,17.9,8,17.9,17.9V204.2z"/>
	</g>
</g>
<g>
	<g>
		<path class="st0" d="M390.1,291.1c-34.5,0-62.5,28-62.5,62.5v9.9c0,5.5,4.5,10,10,10s10-4.5,10-10v-9.9
			c0-23.4,19.1-42.5,42.5-42.5s42.5,19.1,42.5,42.5V480c0,5.5,4.5,10,10,10s10-4.5,10-10V353.6C452.6,319.1,424.6,291.1,390.1,291.1
			z"/>
	</g>
</g>
<g>
	<g>
		<path class="st0" d="M344.7,390.9c-0.5-0.5-1-0.9-1.5-1.2c-0.5-0.4-1.1-0.7-1.7-0.9c-0.6-0.3-1.2-0.5-1.9-0.6
			c-1.3-0.3-2.6-0.3-3.9,0c-0.6,0.1-1.3,0.3-1.9,0.6c-0.6,0.3-1.2,0.5-1.7,0.9c-0.5,0.4-1.1,0.8-1.5,1.2c-1.9,1.9-2.9,4.4-2.9,7.1
			c0,0.6,0.1,1.3,0.2,2c0.1,0.6,0.3,1.3,0.6,1.9c0.3,0.6,0.6,1.2,0.9,1.7c0.4,0.5,0.8,1.1,1.3,1.5c0.5,0.5,1,0.9,1.5,1.2
			c0.5,0.4,1.1,0.7,1.7,0.9c0.6,0.3,1.2,0.5,1.9,0.6c0.6,0.1,1.3,0.2,2,0.2c0.6,0,1.3-0.1,2-0.2c0.6-0.1,1.3-0.3,1.9-0.6
			c0.6-0.3,1.2-0.6,1.7-0.9c0.6-0.4,1.1-0.8,1.5-1.2c0.5-0.5,0.9-1,1.2-1.5c0.4-0.5,0.7-1.1,0.9-1.7c0.3-0.6,0.4-1.2,0.6-1.9
			c0.1-0.6,0.2-1.3,0.2-2C347.6,395.4,346.6,392.8,344.7,390.9z"/>
	</g>
</g>
<g>
	<g>
		<path class="st0" d="M369.9,30.4h-10.3V10c0-5.5-4.5-10-10-10s-10,4.5-10,10v20.4h-23.3V10c0-5.5-4.5-10-10-10s-10,4.5-10,10v20.4
			H273V10c0-5.5-4.5-10-10-10s-10,4.5-10,10v20.4h-23.3V10c0-5.5-4.5-10-10-10s-10,4.5-10,10v20.4h-23.3V10c0-5.5-4.5-10-10-10
			s-10,4.5-10,10v20.4H143V10c0-5.5-4.5-10-10-10c-5.5,0-10,4.5-10,10v20.4H99.7V10c0-5.5-4.5-10-10-10s-10,4.5-10,10v20.4H69.4
			c-5.5,0-10,4.5-10,10s4.5,10,10,10h10.3v175c0,62.3,40.9,115.2,97.2,133.3v19c0,20.1,14,37,32.8,41.6V443c0,38,31,69,69,69
			s69-31,69-69v-10.7c0-5.5-4.5-10-10-10s-10,4.5-10,10V443c0,27-22,49-49,49c-27,0-49-22-49-49v-23.8c18.8-4.5,32.8-21.4,32.8-41.6
			v-19c56.3-18.1,97.2-71,97.2-133.3v-175h10.3c5.5,0,10-4.5,10-10C379.9,34.9,375.4,30.4,369.9,30.4z M242.4,377.7
			c0,12.5-10.2,22.8-22.8,22.8c-12.5,0-22.8-10.2-22.8-22.8v-14.1c0.4,0.1,0.7,0.1,1.1,0.2c0.2,0,0.5,0.1,0.7,0.1
			c0.8,0.1,1.7,0.2,2.5,0.4c0.3,0,0.6,0.1,0.9,0.1c0.9,0.1,1.8,0.2,2.7,0.3c0.4,0,0.8,0.1,1.3,0.1c0.8,0.1,1.6,0.1,2.4,0.2
			c0.6,0,1.1,0.1,1.7,0.1c0.5,0,1,0.1,1.5,0.1c0.6,0,1.2,0.1,1.8,0.1c0.5,0,0.9,0,1.4,0.1c0.6,0,1.2,0,1.9,0.1c0.4,0,0.8,0,1.2,0
			c0.6,0,1.2,0,1.8,0c0.6,0,1.2,0,1.8,0c0.4,0,0.8,0,1.2,0c0.6,0,1.2,0,1.9-0.1c0.5,0,0.9,0,1.4-0.1c0.6,0,1.2-0.1,1.8-0.1
			c0.5,0,1-0.1,1.5-0.1c0.6,0,1.1-0.1,1.7-0.1c0.8-0.1,1.5-0.1,2.3-0.2c0.5,0,1-0.1,1.5-0.1c0.9-0.1,1.7-0.2,2.6-0.3
			c0.3,0,0.6-0.1,1-0.1c0.8-0.1,1.6-0.2,2.4-0.3c0.3,0,0.6-0.1,0.8-0.1c0.4-0.1,0.7-0.1,1.1-0.2L242.4,377.7L242.4,377.7z
			 M339.6,225.4c0,57.7-40.9,106-95.3,117.4c-0.3,0.1-0.6,0.1-0.8,0.2c-0.7,0.1-1.4,0.3-2.1,0.4c-0.5,0.1-0.9,0.2-1.4,0.2
			c-0.6,0.1-1.2,0.2-1.8,0.3c-0.8,0.1-1.6,0.2-2.4,0.3c-0.5,0.1-0.9,0.1-1.4,0.2c-0.9,0.1-1.9,0.2-2.9,0.3c-0.4,0-0.8,0.1-1.2,0.1
			c-0.8,0.1-1.6,0.1-2.4,0.2c-0.4,0-0.8,0.1-1.2,0.1c-0.8,0-1.6,0.1-2.5,0.1c-0.4,0-0.7,0-1.1,0c-1.2,0-2.3,0.1-3.5,0.1c0,0,0,0,0,0
			c-1.2,0-2.3,0-3.5-0.1c-0.4,0-0.7,0-1.1,0c-0.8,0-1.6-0.1-2.5-0.1c-0.4,0-0.8-0.1-1.2-0.1c-0.8-0.1-1.6-0.1-2.4-0.2
			c-0.4,0-0.8-0.1-1.2-0.1c-0.9-0.1-1.9-0.2-2.8-0.3c-0.5-0.1-1-0.1-1.6-0.2c-0.8-0.1-1.5-0.2-2.3-0.3c-0.6-0.1-1.2-0.2-1.8-0.3
			c-0.5-0.1-0.9-0.2-1.4-0.2c-0.7-0.1-1.4-0.3-2.1-0.4c-0.3-0.1-0.5-0.1-0.8-0.2c-54.4-11.4-95.3-59.7-95.3-117.4v-86h240V225.4z
			 M339.6,73H158.3c-5.5,0-10,4.5-10,10s4.5,10,10,10h181.3v26.4h-240v-69h240V73z"/>
	</g>
</g>
</svg>
