<?xml version="1.0" encoding="iso-8859-1"?>
<!-- Generator: Adobe Illustrator 19.0.0, SVG Export Plug-In . SVG Version: 6.00 Build 0)  -->
<svg version="1.1" id="Capa_1" xmlns="http://www.w3.org/2000/svg" xmlns:xlink="http://www.w3.org/1999/xlink" x="0px" y="0px"
	 viewBox="0 0 512 512" style="enable-background:new 0 0 512 512;" xml:space="preserve">

	 
<style type="text/css">
	.st0{fill:#FC3D6A;}
</style>
<g>
	<g>
		<path class="st0" d="M133.43,81.241c-0.13-0.631-0.32-1.261-0.57-1.87c-0.25-0.601-0.56-1.181-0.92-1.721c-0.36-0.55-0.78-1.06-1.24-1.529
			c-2.33-2.32-5.78-3.38-9.03-2.73c-0.64,0.13-1.27,0.32-1.87,0.57c-0.6,0.25-1.18,0.56-1.72,0.92c-0.55,0.37-1.06,0.78-1.53,1.24
			c-0.46,0.47-0.87,0.979-1.24,1.529c-0.36,0.54-0.671,1.12-0.921,1.721c-0.25,0.609-0.44,1.239-0.57,1.87
			c-0.13,0.649-0.19,1.31-0.19,1.96c0,2.63,1.06,5.199,2.92,7.069c0.471,0.459,0.981,0.879,1.531,1.24
			c0.54,0.36,1.12,0.67,1.72,0.92c0.6,0.25,1.23,0.44,1.87,0.57c0.65,0.13,1.3,0.2,1.96,0.2c0.65,0,1.31-0.07,1.95-0.2
			s1.27-0.32,1.87-0.57c0.6-0.25,1.19-0.56,1.73-0.92c0.55-0.36,1.06-0.78,1.52-1.24c1.86-1.859,2.93-4.439,2.93-7.069
			C133.63,82.551,133.56,81.89,133.43,81.241z"/>
	</g>
</g>
<g>
	<g>
		<path class="st0" d="M219.639,156.693c-20.901,0-37.905,17.004-37.905,37.905v9.606v65.415c0,20.902,17.004,37.905,37.905,37.905
			s37.905-17.004,37.905-37.905v-65.415v-9.606C257.544,173.697,240.54,156.693,219.639,156.693z M237.544,269.619
			c-0.001,9.873-8.033,17.905-17.905,17.905c-9.873,0-17.905-8.032-17.905-17.905v-32.016c5.336,2.872,11.432,4.506,17.905,4.506
			c6.472,0,12.569-1.634,17.905-4.506V269.619z M237.544,204.204c0,9.872-8.032,17.904-17.905,17.904
			c-9.873,0-17.905-8.032-17.905-17.904v-9.606c0-9.873,8.032-17.905,17.905-17.905c9.872,0,17.905,8.032,17.905,17.905V204.204z"/>
	</g>
</g>
<g>
	<g>
		<path class="st0" d="M390.139,291.109c-34.463,0-62.5,28.037-62.5,62.5v9.891c0,5.522,4.478,10,10,10c5.522,0,10-4.478,10-10v-9.891
			c0-23.435,19.065-42.5,42.5-42.5s42.5,19.065,42.5,42.5V480c0,5.522,4.478,10,10,10c5.522,0,10-4.478,10-10V353.609
			C452.639,319.147,424.602,291.109,390.139,291.109z"/>
	</g>
</g>
<g>
	<g>
		<path class="st0" d="M344.709,390.93c-0.459-0.46-0.969-0.88-1.519-1.24c-0.54-0.37-1.12-0.67-1.729-0.92c-0.601-0.25-1.23-0.45-1.87-0.58
			c-1.29-0.25-2.62-0.25-3.9,0c-0.64,0.13-1.27,0.33-1.88,0.58c-0.6,0.25-1.18,0.55-1.72,0.92c-0.55,0.36-1.06,0.78-1.521,1.24
			c-1.859,1.86-2.93,4.44-2.93,7.07c0,0.649,0.061,1.31,0.19,1.95c0.13,0.64,0.319,1.27,0.569,1.869c0.25,0.61,0.561,1.19,0.92,1.73
			c0.37,0.55,0.78,1.06,1.25,1.52c0.461,0.461,0.971,0.881,1.521,1.24c0.54,0.36,1.12,0.67,1.72,0.92c0.61,0.25,1.24,0.45,1.88,0.57
			c0.641,0.13,1.301,0.2,1.95,0.2c0.65,0,1.311-0.07,1.95-0.2c0.64-0.12,1.27-0.32,1.87-0.57c0.609-0.25,1.189-0.56,1.729-0.92
			c0.551-0.359,1.06-0.779,1.521-1.24c0.46-0.46,0.88-0.97,1.24-1.52c0.359-0.54,0.67-1.12,0.92-1.73
			c0.25-0.6,0.439-1.229,0.569-1.869c0.13-0.641,0.2-1.301,0.2-1.95C347.639,395.359,346.569,392.79,344.709,390.93z"/>
	</g>
</g>
<g>
	<g>
		<path class="st0" d="M369.916,30.404h-10.29V10c0-5.523-4.478-10-10-10c-5.522,0-10,4.477-10,10v20.404h-23.329V10c0-5.523-4.478-10-10-10
			c-5.522,0-10,4.477-10,10v20.404h-23.329V10c0-5.523-4.478-10-10-10c-5.522,0-10,4.477-10,10v20.404h-23.329V10
			c0-5.523-4.477-10-10-10c-5.523,0-10,4.477-10,10v20.404H186.31V10c0-5.523-4.477-10-10-10s-10,4.477-10,10v20.404h-23.33V10
			c0-5.523-4.477-10-10-10c-5.523,0-10,4.477-10,10v20.404H99.651V10c0-5.523-4.477-10-10-10s-10,4.477-10,10v20.404h-10.29
			c-5.523,0-10,4.478-10,10c0,5.522,4.477,10,10,10h10.29v174.981c0,62.285,40.893,115.191,97.237,133.303v18.972
			c0,20.129,13.988,37.042,32.75,41.557V443c0,38.047,30.953,69,69,69s69-30.953,69-69v-10.667c0.001-5.523-4.477-10-9.999-10
			c-5.522,0-10,4.477-10,10V443c0,27.019-21.982,49-49,49c-27.019,0-49-21.981-49-49v-23.782
			c18.762-4.516,32.75-21.429,32.75-41.557v-18.972c56.345-18.112,97.237-71.018,97.237-133.303V50.404h10.29
			c5.522,0,10-4.478,10-10C379.916,34.882,375.438,30.404,369.916,30.404z M242.391,377.662c0,12.544-10.206,22.75-22.75,22.75
			c-12.547-0.001-22.752-10.207-22.752-22.751v-14.132c0.372,0.061,0.745,0.113,1.117,0.171c0.233,0.036,0.465,0.072,0.699,0.107
			c0.844,0.126,1.69,0.245,2.537,0.356c0.291,0.038,0.581,0.078,0.872,0.115c0.894,0.112,1.789,0.214,2.686,0.308
			c0.417,0.044,0.835,0.085,1.254,0.126c0.79,0.076,1.581,0.149,2.373,0.211c0.554,0.044,1.109,0.08,1.665,0.118
			c0.496,0.033,0.992,0.066,1.488,0.095c0.6,0.034,1.202,0.064,1.804,0.091c0.453,0.02,0.907,0.036,1.361,0.052
			c0.624,0.022,1.247,0.043,1.873,0.057c0.408,0.009,0.815,0.01,1.223,0.015c0.6,0.008,1.198,0.023,1.799,0.023
			c0.598,0,1.193-0.015,1.789-0.023c0.411-0.005,0.821-0.007,1.231-0.016c0.625-0.013,1.249-0.035,1.872-0.056
			c0.453-0.016,0.906-0.032,1.359-0.052c0.605-0.027,1.208-0.057,1.811-0.091c0.49-0.028,0.979-0.061,1.469-0.093
			c0.562-0.038,1.125-0.074,1.685-0.119c0.753-0.06,1.505-0.129,2.257-0.201c0.489-0.047,0.978-0.095,1.466-0.147
			c0.853-0.09,1.706-0.187,2.557-0.293c0.325-0.041,0.649-0.086,0.973-0.129c0.802-0.106,1.602-0.217,2.401-0.337
			c0.277-0.042,0.554-0.084,0.831-0.127c0.35-0.055,0.7-0.104,1.05-0.161V377.662z M339.626,225.386
			c0,57.702-40.944,106.017-95.305,117.429c-0.277,0.058-0.554,0.118-0.832,0.174c-0.701,0.142-1.406,0.276-2.111,0.406
			c-0.472,0.086-0.945,0.169-1.419,0.249c-0.6,0.103-1.201,0.206-1.804,0.3c-0.8,0.124-1.602,0.237-2.404,0.344
			c-0.471,0.063-0.941,0.126-1.413,0.184c-0.95,0.116-1.901,0.223-2.854,0.317c-0.392,0.038-0.786,0.07-1.179,0.105
			c-0.792,0.07-1.584,0.134-2.377,0.188c-0.409,0.028-0.818,0.054-1.227,0.078c-0.82,0.048-1.64,0.085-2.461,0.117
			c-0.36,0.013-0.719,0.031-1.08,0.041c-1.171,0.034-2.344,0.055-3.517,0.055c-0.001,0-0.002,0-0.003,0
			c-1.174,0-2.347-0.022-3.519-0.055c-0.362-0.01-0.723-0.028-1.084-0.041c-0.819-0.031-1.637-0.069-2.454-0.116
			c-0.413-0.024-0.826-0.051-1.238-0.079c-0.786-0.054-1.572-0.117-2.356-0.186c-0.401-0.035-0.802-0.068-1.202-0.107
			c-0.932-0.091-1.861-0.197-2.79-0.31c-0.52-0.064-1.038-0.132-1.556-0.203c-0.77-0.104-1.54-0.212-2.307-0.33
			c-0.614-0.095-1.225-0.201-1.836-0.305c-0.462-0.079-0.925-0.159-1.386-0.244c-0.711-0.131-1.421-0.266-2.127-0.409
			c-0.274-0.055-0.547-0.114-0.82-0.171c-54.367-11.411-95.314-59.727-95.314-117.431v-85.975h239.975V225.386z M339.626,72.961
			H158.343c-5.523,0-10,4.478-10,10c0,5.522,4.477,10,10,10h181.283v26.45H99.651V50.404h239.975V72.961z"/>
	</g>
</g>
<g>
</g>
<g>
</g>
<g>
</g>
<g>
</g>
<g>
</g>
<g>
</g>
<g>
</g>
<g>
</g>
<g>
</g>
<g>
</g>
<g>
</g>
<g>
</g>
<g>
</g>
<g>
</g>
<g>
</g>
</svg>
