<?xml version="1.0" encoding="utf-8"?>
<!-- Generator: Adobe Illustrator 24.0.2, SVG Export Plug-In . SVG Version: 6.00 Build 0)  -->
<svg version="1.1" id="Layer_1" xmlns="http://www.w3.org/2000/svg" xmlns:xlink="http://www.w3.org/1999/xlink" x="0px" y="0px"
	 viewBox="0 0 512 512" style="enable-background:new 0 0 512 512;" xml:space="preserve">
<style type="text/css">
	.st0{fill:#FF9FD2;}
</style>
<path class="st0" d="M497,247.4c-9.5-9.6-22.5-15-36-14.9h-71.1l0-62.2c-0.1-40.6-25-77-62.7-91.9c-12.8-5-28.9-9-42.6-6.1
	c7.3-27.1-8.7-55-35.8-62.3s-55,8.7-62.3,35.8s8.7,55,35.8,62.3c10,2.7,20.6,2.3,30.4-1.2l-28.8,49l-63.8,31.5
	c-8.5,4.3-14.7,12-17,21.2h-14.9c-11.5,0-22.5,4.9-30.3,13.5c-9.8-26.2-39-39.4-65.1-29.6c-26.2,9.8-39.4,39-29.6,65.1
	c2.7,7.2,7,13.7,12.6,19H7c-3.9,0-7,3.1-7,7v59.8c0,3.9,3.1,7,7,7h28v146.3c0,3.9,3.1,7,7,7h48c3.9,0,7-3.1,7-7v-82.1
	c0.5,0,1,0.1,1.5,0.1c11.2,0,21.4-6.6,26-16.9l20.6-47.4h99.1l-10.3,13.6c-5.6,5.8-8.8,13.6-8.8,21.6v86c-0.2,17,13.1,31.1,30,32
	h0.9c17.1,0,31-13.9,31-31v-74.1l22.3-22.1l-3.8,19.3c-0.6,3.3-0.7,6.6-0.3,9.9l11.5,70.7c1.9,15.6,15.1,27.3,30.8,27.3
	c1.3,0,2.5-0.1,3.8-0.2c17-2.1,29.1-17.5,27-34.5c0-0.1,0-0.2,0-0.3l-10.8-66l10.2-52.3H415v146.3c0,3.9,3.1,7,7,7h48
	c3.9,0,7-3.1,7-7V350.2h28c3.9,0,7-3.1,7-7v-59.8C512,269.9,506.6,257,497,247.4L497,247.4z M235.8,95.8
	c-20.2,0-36.6-16.4-36.6-36.6s16.4-36.6,36.6-36.6s36.6,16.4,36.6,36.6c0,0,0,0,0,0C272.4,79.3,256,95.7,235.8,95.8L235.8,95.8z
	 M166.3,199.8l65.7-32.4c1.2-0.6,2.2-1.6,2.9-2.7l41.6-70.8c2.7-4.6,7.5-7.7,12.8-8.3c0.6-0.1,1.2-0.1,1.9-0.1
	c46.8,0,84.7,38,84.8,84.8l0,62.2h-0.6c-14.8-13.2-33.4-21.4-53.2-23.5l3.7-24.5c3.1-20.6-7.9-40.8-27-49.3
	c-3.3-1.4-7.1-0.2-8.9,2.8l-29.4,50c-1.7,2.9-4.2,5.2-7.1,6.6l-73,36c-8.4,4.1-18.6,0.7-22.8-7.7c-0.1-0.1-0.1-0.3-0.2-0.5
	c-1-2.2-1.5-4.5-1.4-6.9C156.3,208.9,160.3,202.8,166.3,199.8L166.3,199.8z M312,182.5l-4,26h-50.9l2.4-1.2c5.4-2.7,10-6.9,13-12.1
	l25.9-44.1C308.7,158.2,313.9,170.3,312,182.5L312,182.5z M14,239.8c0-20.2,16.4-36.6,36.6-36.6s36.6,16.4,36.6,36.6
	s-16.4,36.6-36.6,36.6c0,0,0,0,0,0C30.4,276.4,14,260,14,239.8L14,239.8z M87.2,274.7v1.8h-1.8C86,275.9,86.6,275.3,87.2,274.7
	L87.2,274.7z M41.8,336.2H14v-45.8h73.3v45.7L41.8,336.2z M83,351.6L73,374.3c-3.9,8.7-3.3,18.7,1.4,26.9c2.1,3.5,5,6.5,8.5,8.7
	v79.6H49V350.2h34L83,351.6z M140.4,276.5c-3.9,0-7,3.1-7,7v58.3L111.6,392c-2.7,6.3-9.5,9.7-16.2,8.2c-7.7-1.9-12.4-9.7-10.5-17.5
	c0.2-1,0.6-1.9,1-2.8l14.8-33.9v0c0.2-0.4,0.3-0.9,0.4-1.3c0.1-0.5,0.1-0.9,0.1-1.4v-93.8c0-14.9,12.1-26.9,27-27h14.6
	c0.4,2,1.1,4,2,5.9c3.5,7.6,9.9,13.5,17.8,16.3c7.9,2.8,16.6,2.3,24.1-1.4l42.2-20.8h83.5c0.4,0,0.8,0,1.6,0
	c20.1,0.4,39.3,8.3,53.8,22c1.3,1.2,3,1.9,4.8,1.9H461c17.7,0,32.9,12.6,36.3,30L140.4,276.5z M314,351.9l-39,38.6
	c-1.3,1.3-2.1,3.1-2.1,5v77c0,9.4-7.7,17-17.1,17c-0.2,0-0.3,0-0.5,0c-9.4-0.6-16.7-8.6-16.5-18v-86c0-4.5,1.8-8.9,5.1-12.1
	c0.2-0.2,0.5-0.5,0.7-0.8l17-22.5h52.6L314,351.9z M349.5,489.4c-9.3,1.2-17.8-5.4-18.9-14.7c0-0.2,0-0.3-0.1-0.5l-11.5-70.7
	c-0.2-1.8-0.1-3.6,0.2-5.4l7.7-39.4l8.7-8.6h27.7l-9.9,50.8c-0.2,0.8-0.2,1.7,0,2.5l11,67.1C365.4,479.9,358.8,488.2,349.5,489.4
	L349.5,489.4z M462.9,489.5h-34V350.2h34V489.5z M497.9,336.2H147.4v-45.8H498L497.9,336.2z"/>
</svg>
