<?xml version="1.0" encoding="utf-8"?>
<!-- Generator: Adobe Illustrator 24.0.2, SVG Export Plug-In . SVG Version: 6.00 Build 0)  -->
<svg version="1.1" id="Layer_1" xmlns="http://www.w3.org/2000/svg" xmlns:xlink="http://www.w3.org/1999/xlink" x="0px" y="0px"
	 viewBox="0 0 512 512" style="enable-background:new 0 0 512 512;" xml:space="preserve">
<style type="text/css">
	.st0{fill:#FF9FD2;}
</style>
<g>
	<g>
		<path class="st0" d="M288.1,32.1c-13.5,0-24.5-11-24.5-24.5c0-4.2-3.4-7.5-7.5-7.5s-7.5,3.4-7.5,7.5c0,13.5-11,24.5-24.5,24.5
			c-4.1,0-7.5,3.4-7.5,7.5s3.4,7.5,7.5,7.5c13.5,0,24.5,11,24.5,24.5c0,4.2,3.4,7.5,7.5,7.5s7.5-3.4,7.5-7.5
			c0-13.5,11-24.5,24.5-24.5c4.1,0,7.5-3.4,7.5-7.5C295.6,35.4,292.2,32.1,288.1,32.1z M256,48.5c-2.5-3.4-5.5-6.4-8.9-8.9
			c3.4-2.5,6.4-5.5,8.9-8.9c2.5,3.4,5.5,6.4,8.9,8.9C261.5,42,258.5,45.1,256,48.5z"/>
	</g>
</g>
<g>
	<g>
		<path class="st0" d="M456.4,144.3c-13.5,0-24.5-11-24.5-24.5c0-4.2-3.4-7.5-7.5-7.5c-4.1,0-7.5,3.4-7.5,7.5
			c0,13.5-11,24.5-24.5,24.5c-4.1,0-7.5,3.4-7.5,7.5s3.4,7.5,7.5,7.5c13.5,0,24.5,11,24.5,24.5c0,4.2,3.4,7.5,7.5,7.5
			c4.1,0,7.5-3.4,7.5-7.5c0-13.5,11-24.5,24.5-24.5c4.1,0,7.5-3.4,7.5-7.5C463.9,147.6,460.5,144.3,456.4,144.3z M424.3,160.7
			c-2.5-3.4-5.5-6.4-8.9-8.9c3.4-2.5,6.4-5.5,8.9-8.9c2.5,3.4,5.5,6.4,8.9,8.9C429.8,154.3,426.8,157.3,424.3,160.7z"/>
	</g>
</g>
<g>
	<g>
		<path class="st0" d="M119.7,104.2c-13.5,0-24.5-11-24.5-24.5c0-4.2-3.4-7.5-7.5-7.5s-7.5,3.4-7.5,7.5c0,13.5-11,24.5-24.5,24.5
			c-4.2,0-7.5,3.4-7.5,7.5s3.4,7.5,7.5,7.5c13.5,0,24.5,11,24.5,24.5c0,4.2,3.4,7.5,7.5,7.5s7.5-3.4,7.5-7.5
			c0-13.5,11-24.5,24.5-24.5c4.2,0,7.5-3.4,7.5-7.5S123.9,104.2,119.7,104.2z M87.7,120.6c-2.5-3.4-5.5-6.4-8.9-8.9
			c3.4-2.5,6.4-5.5,8.9-8.9c2.5,3.4,5.5,6.4,8.9,8.9C93.1,114.2,90.1,117.2,87.7,120.6z"/>
	</g>
</g>
<g>
	<g>
		<path class="st0" d="M23.5,473.3c-4.1,0-7.5,3.4-7.5,7.5v23.7c0,4.2,3.4,7.5,7.5,7.5s7.5-3.4,7.5-7.5v-23.7
			C31.1,476.6,27.7,473.3,23.5,473.3z"/>
	</g>
</g>
<g>
	<g>
		<path class="st0" d="M136.4,251.6c-0.4-0.3-0.8-0.6-1.2-0.9V240c0-26.2-21.4-47.6-47.6-47.6S40.1,213.7,40.1,240v10.8
			c-0.4,0.3-0.8,0.5-1.2,0.9C24.4,265.1,16,284.2,16,304.1v146c0,4.2,3.4,7.5,7.5,7.5s7.5-3.4,7.5-7.5v-146c0-10.9,3.2-21.6,9-30.6
			v70.7c0,21.8,17.8,39.6,39.6,39.6h16c21.8,0,39.6-17.8,39.6-39.6v-70.7c5.8,9.1,9,19.7,9,30.6v200.4c0,4.2,3.4,7.5,7.5,7.5
			s7.5-3.4,7.5-7.5V304.1C159.3,284.3,151,265.1,136.4,251.6z M120.2,344.2c0,13.5-11,24.5-24.5,24.5h-16c-13.5,0-24.5-11-24.5-24.5
			V240c0-18,14.6-32.6,32.6-32.6s32.6,14.6,32.6,32.6L120.2,344.2L120.2,344.2z"/>
	</g>
</g>
<g>
	<g>
		<path class="st0" d="M88.7,216.4h-1c-4.2,0-7.5,3.4-7.5,7.5s3.4,7.5,7.5,7.5h1c4.2,0,7.5-3.4,7.5-7.5S92.8,216.4,88.7,216.4z"/>
	</g>
</g>
<g>
	<g>
		<path class="st0" d="M104.7,240.5h-1c-4.2,0-7.5,3.4-7.5,7.5s3.4,7.5,7.5,7.5h1c4.2,0,7.5-3.4,7.5-7.5
			C112.2,243.8,108.9,240.5,104.7,240.5z"/>
	</g>
</g>
<g>
	<g>
		<path class="st0" d="M72.6,240.5h-1c-4.2,0-7.5,3.4-7.5,7.5s3.4,7.5,7.5,7.5h1c4.2,0,7.5-3.4,7.5-7.5
			C80.2,243.8,76.8,240.5,72.6,240.5z"/>
	</g>
</g>
<g>
	<g>
		<path class="st0" d="M104.7,272.5h-1c-4.2,0-7.5,3.4-7.5,7.5s3.4,7.5,7.5,7.5h1c4.2,0,7.5-3.4,7.5-7.5
			C112.2,275.9,108.9,272.5,104.7,272.5z"/>
	</g>
</g>
<g>
	<g>
		<path class="st0" d="M72.6,272.5h-1c-4.2,0-7.5,3.4-7.5,7.5s3.4,7.5,7.5,7.5h1c4.2,0,7.5-3.4,7.5-7.5
			C80.2,275.9,76.8,272.5,72.6,272.5z"/>
	</g>
</g>
<g>
	<g>
		<path class="st0" d="M104.7,304.6h-1c-4.2,0-7.5,3.4-7.5,7.5s3.4,7.5,7.5,7.5h1c4.2,0,7.5-3.4,7.5-7.5
			C112.2,308,108.9,304.6,104.7,304.6z"/>
	</g>
</g>
<g>
	<g>
		<path class="st0" d="M72.6,304.6h-1c-4.2,0-7.5,3.4-7.5,7.5s3.4,7.5,7.5,7.5h1c4.2,0,7.5-3.4,7.5-7.5
			C80.2,308,76.8,304.6,72.6,304.6z"/>
	</g>
</g>
<g>
	<g>
		<path class="st0" d="M104.7,336.7h-1c-4.2,0-7.5,3.4-7.5,7.5s3.4,7.5,7.5,7.5h1c4.2,0,7.5-3.4,7.5-7.5
			C112.2,340,108.9,336.7,104.7,336.7z"/>
	</g>
</g>
<g>
	<g>
		<path class="st0" d="M72.6,336.7h-1c-4.2,0-7.5,3.4-7.5,7.5s3.4,7.5,7.5,7.5h1c4.2,0,7.5-3.4,7.5-7.5
			C80.2,340,76.8,336.7,72.6,336.7z"/>
	</g>
</g>
<g>
	<g>
		<path class="st0" d="M320.1,336.7c-4.1,0-7.5,3.4-7.5,7.5v160.3c0,4.2,3.4,7.5,7.5,7.5s7.5-3.4,7.5-7.5V344.2
			C327.6,340,324.3,336.7,320.1,336.7z"/>
	</g>
</g>
<g>
	<g>
		<path class="st0" d="M305.3,164c-0.5-0.5-1.1-0.9-1.7-1.2v-2.9c0-26.2-21.4-47.6-47.6-47.6s-47.6,21.4-47.6,47.6v2.7
			c-0.4,0.3-0.8,0.5-1.2,0.9c-14.5,13.5-22.9,32.6-22.9,52.5v288.6c0,4.2,3.4,7.5,7.5,7.5s7.5-3.4,7.5-7.5V215.9
			c0-10.9,3.2-21.6,9-30.6V264c0,21.8,17.8,39.6,39.6,39.6h16c21.8,0,39.6-17.8,39.6-39.6v-78.8c5.9,9,9,19.6,9,30.7v97.2
			c0,4.2,3.4,7.5,7.5,7.5s7.5-3.4,7.5-7.5v-97.2C327.6,196.1,319.7,177.6,305.3,164z M253.8,127.3l-30.3,30.3
			C224.6,141.4,237.6,128.4,253.8,127.3z M223.4,178.8c0.3-0.2,0.7-0.5,1-0.8l46.9-46.9c5.7,3,10.4,7.7,13.4,13.4l-61.3,61.3V178.8z
			 M288.6,264c0,13.5-11,24.5-24.5,24.5h-5.9l30.5-30.5V264z M288.6,237c-0.3,0.2-0.6,0.4-0.8,0.7l-49.1,49.1
			c-6.1-2.5-10.9-7.3-13.4-13.4l63.3-63.3V237z M288.6,188.9c-0.3,0.2-65.1,65-65.1,65v-27c0.3-0.2,0.7-0.5,1-0.8l64.2-64.2V188.9z"
			/>
	</g>
</g>
<g>
	<g>
		<path class="st0" d="M473.7,276.2c-0.5-0.5-1.1-0.9-1.7-1.2V272c0-26.2-21.4-47.6-47.6-47.6c-26.2,0-47.6,21.4-47.6,47.6v3
			c-0.7,0.3-1.3,0.8-1.9,1.3c-14.3,13.6-22.1,32-22.1,51.8v176.3c0,4.2,3.4,7.5,7.5,7.5c4.1,0,7.5-3.4,7.5-7.5V328.1
			c0-11.1,3.2-21.6,9-30.7v78.8c0,21.8,17.8,39.6,39.6,39.6h16c21.8,0,39.6-17.8,39.6-39.6v-78.8c5.9,9,9,19.6,9,30.7v176.3
			c0,4.2,3.4,7.5,7.5,7.5c4.1,0,7.5-3.4,7.5-7.5V328.1C496,308.3,488,289.9,473.7,276.2z M456,264.5c-15-0.2-27.9-10.8-31.3-25
			C439.9,239.7,452.6,250.3,456,264.5z M432.3,400.8h-16c-12.7,0-23.2-9.8-24.4-22.2c14.6,8.6,31.2,13.2,48.5,13.2
			c3.9,0,7.7-0.2,11.5-0.7C447.4,397,440.3,400.8,432.3,400.8z M456.9,375c-5.4,1.1-11,1.7-16.5,1.7c-17.7,0-34.5-5.6-48.6-16.3
			c0,0,0,0,0,0v-25.4c13.8,10.6,30.9,16.6,48.6,16.6c5.6,0,11.1-0.6,16.5-1.7V375z M456.9,334.5c-5.4,1.4-10.9,2.1-16.5,2.1
			c-18,0-35.4-7.6-47.6-20.9c-0.3-0.3-0.7-0.6-1-0.9v-37.7c10.6,20.6,32,34.5,56.6,34.5c2.9,0,5.7-0.2,8.5-0.6L456.9,334.5
			L456.9,334.5z M456.9,295.8c-2.8,0.5-5.7,0.8-8.5,0.8c-25.9,0-47.2-20.2-48.5-46c2.8-3.2,6.3-5.9,10.2-7.8
			c5,21.1,24.1,36.8,46.3,36.8c0.2,0,0.3,0,0.5,0L456.9,295.8L456.9,295.8z"/>
	</g>
</g>
</svg>
